<svg width="28" height="37" viewBox="0 0 28 37" fill="none" xmlns="http://www.w3.org/2000/svg">
<path fill-rule="evenodd" clip-rule="evenodd" d="M24.1304 37H3.21739C1.44059 37 0 35.5594 0 33.7826V3.21739C0 1.44059 1.44059 0 3.21739 0H18.4783C18.4799 0 18.4823 0 18.4839 0H18.5C18.7574 0 18.977 0.1295 19.1242 0.317717L27.0301 8.22365C27.2191 8.37085 27.3478 8.59044 27.3478 8.84783V8.86472C27.3478 8.86633 27.3478 8.86713 27.3478 8.86874V33.7826C27.3478 35.5594 25.9072 37 24.1304 37ZM19.3043 2.7195V8.04348H24.6283L19.3043 2.7195ZM25.7391 9.65217H18.5C18.0552 9.65217 17.6957 9.29183 17.6957 8.84783V1.6087H3.21739C2.32939 1.6087 1.6087 2.32939 1.6087 3.21739V33.7826C1.6087 34.6706 2.32939 35.3913 3.21739 35.3913H24.1304C25.0184 35.3913 25.7391 34.6706 25.7391 33.7826V9.65217ZM20.913 30.5652H6.43478C5.98998 30.5652 5.63043 30.2057 5.63043 29.7609C5.63043 29.3169 5.98998 28.9565 6.43478 28.9565H20.913C21.3578 28.9565 21.7174 29.3169 21.7174 29.7609C21.7174 30.2057 21.3578 30.5652 20.913 30.5652ZM20.913 24.1304H6.43478C5.98998 24.1304 5.63043 23.7709 5.63043 23.3261C5.63043 22.8821 5.98998 22.5217 6.43478 22.5217H20.913C21.3578 22.5217 21.7174 22.8821 21.7174 23.3261C21.7174 23.7709 21.3578 24.1304 20.913 24.1304ZM20.913 17.6957H6.43478C5.98998 17.6957 5.63043 17.3361 5.63043 16.8913C5.63043 16.4473 5.98998 16.087 6.43478 16.087H20.913C21.3578 16.087 21.7174 16.4473 21.7174 16.8913C21.7174 17.3361 21.3578 17.6957 20.913 17.6957Z" fill="#9B7BF8"/>
</svg>
